<svg xmlns="http://www.w3.org/2000/svg" width="48" height="48" viewBox="0 0 48 48"><g><path fill="#181616" d="M24 2C12.954 2 4 10.954 4 22c0 8.84 5.735 16.32 13.7 18.96.999.183 1.36-.434 1.36-.965 0-.477-.017-1.74-.027-3.418-5.574 1.211-6.75-2.687-6.75-2.687-.909-2.308-2.221-2.924-2.221-2.924-1.816-1.242.138-1.217.138-1.217 2.008.142 3.065 2.063 3.065 2.063 1.785 3.06 4.683 2.177 5.825 1.665.181-1.293.698-2.177 1.271-2.678-4.451-.507-9.133-2.225-9.133-9.899 0-2.187.781-3.977 2.063-5.381-.207-.507-.894-2.548.195-5.312 0 0 1.684-.54 5.52 2.055A19.19 19.19 0 0 1 24 11.8c1.705.008 3.425.23 5.03.674 3.834-2.595 5.516-2.055 5.516-2.055 1.091 2.764.404 4.805.198 5.312 1.285 1.404 2.062 3.194 2.062 5.381 0 7.689-4.687 9.387-9.146 9.888.718.617 1.357 1.834 1.357 3.697 0 2.67-.024 4.825-.024 5.484 0 .534.358 1.154 1.37.958C38.27 38.316 44 30.84 44 22c0-11.046-8.954-20-20-20z"/></g></svg>

