<svg xmlns="http://www.w3.org/2000/svg" width="48" height="48" viewBox="0 0 48 48"><g><path fill="#4285F4" d="M43.611 20.083H42V20H24v8h11.303C33.962 32.833 29.418 36 24 36c-6.627 0-12-5.373-12-12s5.373-12 12-12c2.803 0 5.377.99 7.409 2.626l6.591-6.591C34.583 5.163 29.555 3 24 3 12.954 3 4 11.954 4 23s8.954 20 20 20c11.045 0 19.5-7.955 19.5-19.5 0-1.3-.138-2.567-.389-3.833z"/><path fill="#34A853" d="M6.306 14.691l6.571 4.819C14.655 16.163 19.001 13 24 13c2.803 0 5.377.99 7.409 2.626l6.591-6.591C34.583 5.163 29.555 3 24 3c-7.732 0-14.41 4.388-17.694 11.691z"/><path fill="#FBBC05" d="M24 44c5.318 0 10.062-1.822 13.797-4.949l-6.363-5.217C29.418 36 24 36 24 36c-5.418 0-9.962-3.167-11.303-8.083l-6.571 4.819C9.59 39.612 16.268 44 24 44z"/><path fill="#EA4335" d="M43.611 20.083H42V20H24v8h11.303c-1.13 3.833-4.418 8-11.303 8-5.418 0-9.962-3.167-11.303-8.083l-6.571 4.819C9.59 39.612 16.268 44 24 44c7.732 0 14.41-4.388 17.694-11.691z"/></g></svg>

