<svg xmlns="http://www.w3.org/2000/svg" width="48" height="48" viewBox="0 0 48 48"><g><path fill="#0077B5" d="M44.5 4h-41C2.1 4 1 5.1 1 6.5v35C1 42.9 2.1 44 3.5 44h41c1.4 0 2.5-1.1 2.5-2.5v-35C47 5.1 45.9 4 44.5 4zM14.1 39H8.6V19.1h5.5V39zm-2.7-22.5c-1.8 0-3.1-1.3-3.1-2.9 0-1.7 1.3-2.9 3.2-2.9s3.1 1.2 3.1 2.9c0 1.6-1.2 2.9-3.2 2.9zm27.6 22.5h-5.5v-9.7c0-2.4-.9-4-3.1-4-1.7 0-2.7 1.1-3.1 2.1-.2.4-.2 1-.2 1.6V39h-5.5s.1-17.2 0-18.9h5.5v2.7c.7-1.1 2-2.7 4.9-2.7 3.6 0 6.3 2.3 6.3 7.2V39z"/></g></svg>

